<svg id="afya_call_logo" data-name="afya call logo" xmlns="http://www.w3.org/2000/svg" viewBox="0 0 551 249.39"><defs><style>.cls-1{fill:none;stroke:#231f20;stroke-miterlimit:10;}.cls-2,.cls-4{fill:#1f393c;}.cls-3{fill:#a7be49;}.cls-4{font-size:26px;font-family:Poppins-Medium, Poppins;font-weight:500;letter-spacing:0.12em;}</style></defs><path class="cls-1" d="M560.09,501.25a.3.3,0,0,1-.1-.07" transform="translate(-264.5 -415.31)"/><path class="cls-2" d="M340.49,501.25a44.12,44.12,0,1,0-2,63c4.44-3.58,14.28,11.62,14.28,11.62V487.65S343.9,504,340.49,501.25Zm-31.87,52.66a22.14,22.14,0,1,1,22.14-22.14A22.14,22.14,0,0,1,308.62,553.91Z" transform="translate(-264.5 -415.31)"/><path class="cls-1" d="M340.49,501.25a.3.3,0,0,1-.1-.07" transform="translate(-264.5 -415.31)"/><path class="cls-2" d="M560.09,501.25a44.12,44.12,0,1,0-2,63c4.44-3.58,14.28,11.62,14.28,11.62V487.65S563.5,504,560.09,501.25Zm-31.87,52.66a22.14,22.14,0,1,1,22.14-22.14A22.14,22.14,0,0,1,528.22,553.91Z" transform="translate(-264.5 -415.31)"/><path class="cls-2" d="M387.82,480.25v10.66h30.44V491a14.21,14.21,0,0,0-9.15,18.65H387.82v49.12a18.34,18.34,0,0,0-21.6,6.79V468.17c.08-.71.19-1.42.34-2.12a23.57,23.57,0,0,1,21.26-18.65c.59,0,1.19-.07,1.8-.07h32.76v18.72H402A14.2,14.2,0,0,0,387.82,480.25Z" transform="translate(-264.5 -415.31)"/><path class="cls-1" d="M387.82,415.38v-.07" transform="translate(-264.5 -415.31)"/><path class="cls-2" d="M476,491.94a6.58,6.58,0,0,0-4.9-3.06,1.5,1.5,0,0,0-.3,3,3.64,3.64,0,0,1,2.72,1.76c5.86,8.64-1.25,42.65-5.82,60.33a3.5,3.5,0,0,0-3,3.17c-1,11.1-4,19-8.88,23.13a11.47,11.47,0,0,1-8,2.94c-13.83-3.09-15-15.89-14.72-21.87a3.52,3.52,0,0,0-2.81-3.63c-2.22-13.69-8-54.07-.55-64a4.11,4.11,0,0,1,2.88-1.83,1.5,1.5,0,1,0-.3-3,7,7,0,0,0-5,3c-8.26,11-2.25,52.74,0,66.53a3.58,3.58,0,0,0-1.29,2.58c-.46,9.47,2.71,23.34,17.17,28.17-1.37,7.11-5.74,25.22-16.08,35.68,8.09-16,9.74-28.9,4.88-38.57-9-18-36.61-17.21-37.71-17.17-25.2.41-31.88,13.43-33,24.28A35.63,35.63,0,0,0,375.16,625c12.75,9.86,24.39,14.77,34.78,14.62-1.8,2.56-3.76,5.23-5.91,8a5.55,5.55,0,0,0-1-.08,8.4,8.4,0,0,0-8.15,5.59A8.58,8.58,0,1,0,410,651.33q5.31-6.95,9.49-13.36c.48-.17,1-.36,1.45-.55,20.44-8.38,27.47-37.82,29.24-47.35a19.11,19.11,0,0,0,9.91-4.28c6.51-5.33,10.41-14.77,11.59-28.1a3.43,3.43,0,0,0-1.13-2.87C474.24,540.68,483.18,502.48,476,491.94ZM415.05,632c-9.85,2.35-21.81-1.84-35.61-12.51a28.59,28.59,0,0,1-11.2-25.35c1.27-11.86,9.84-17.75,26.27-18h.73c4.09,0,24.18.66,30.53,13.32C429.26,596.37,429.47,609.12,415.05,632Z" transform="translate(-264.5 -415.31)"/><path class="cls-3" d="M737.21,501.25a44.12,44.12,0,1,0-2,63c4.44-3.58,14.28,11.62,14.28,11.62V487.65S740.62,504,737.21,501.25Zm-31.87,52.66a22.14,22.14,0,1,1,22.14-22.14A22.14,22.14,0,0,1,705.34,553.91Z" transform="translate(-264.5 -415.31)"/><path class="cls-1" d="M737.21,501.25a.3.3,0,0,1-.1-.07" transform="translate(-264.5 -415.31)"/><path class="cls-3" d="M659,562.78a44.64,44.64,0,1,1-1.52-63.52l-9.36,13a28.8,28.8,0,1,0-.08,39Z" transform="translate(-264.5 -415.31)"/><rect class="cls-3" x="497.72" y="41.39" width="21.6" height="119.2"/><rect class="cls-3" x="529.4" y="41.39" width="21.6" height="119.2"/><text class="cls-4" transform="translate(241.58 192.75)">daktari kiganjani</text></svg>