<svg id="Layer_3" data-name="Layer 3" xmlns="http://www.w3.org/2000/svg" viewBox="0 0 307.84 217.36"><defs><style>.cls-1{fill:#1f393c;}.cls-2{fill:none;stroke:#231f20;stroke-miterlimit:10;}</style></defs><path class="cls-1" d="M462.07,485.24a44.12,44.12,0,1,0-2,63c4.44-3.58,14.28,11.62,14.28,11.62V471.64S465.48,488,462.07,485.24ZM430.2,537.9a22.14,22.14,0,1,1,22.14-22.14A22.14,22.14,0,0,1,430.2,537.9Z" transform="translate(-386.08 -431.32)"/><path class="cls-2" d="M462.07,485.24a.3.3,0,0,1-.1-.07" transform="translate(-386.08 -431.32)"/><path class="cls-1" d="M681.67,485.24a44.12,44.12,0,1,0-2,63c4.44-3.58,14.28,11.62,14.28,11.62V471.64S685.08,488,681.67,485.24ZM649.8,537.9a22.14,22.14,0,1,1,22.14-22.14A22.14,22.14,0,0,1,649.8,537.9Z" transform="translate(-386.08 -431.32)"/><path class="cls-1" d="M509.4,464.24V474.9h30.44V475a14.21,14.21,0,0,0-9.15,18.65H509.4v49.12a18.34,18.34,0,0,0-21.6,6.79V452.16c.08-.71.19-1.42.34-2.12a23.57,23.57,0,0,1,21.26-18.65c.59-.05,1.19-.07,1.8-.07H544V450H523.6A14.2,14.2,0,0,0,509.4,464.24Z" transform="translate(-386.08 -431.32)"/><path class="cls-1" d="M597.61,475.93a6.58,6.58,0,0,0-4.9-3.06,1.5,1.5,0,1,0-.3,3,3.64,3.64,0,0,1,2.72,1.76c5.86,8.64-1.25,42.65-5.82,60.33a3.5,3.5,0,0,0-3,3.17c-1,11.1-4,19-8.88,23.13a11.47,11.47,0,0,1-8,2.94c-13.83-3.09-15-15.89-14.72-21.87a3.52,3.52,0,0,0-2.81-3.63c-2.22-13.69-8-54.07-.55-64a4.11,4.11,0,0,1,2.88-1.83,1.5,1.5,0,1,0-.3-3,7,7,0,0,0-5,3c-8.26,11-2.25,52.74,0,66.53a3.58,3.58,0,0,0-1.29,2.58c-.46,9.47,2.71,23.34,17.17,28.17-1.37,7.11-5.74,25.22-16.08,35.68,8.09-16,9.74-28.9,4.88-38.57-9.05-18-36.61-17.21-37.71-17.17-25.2.41-31.88,13.43-33,24.28A35.63,35.63,0,0,0,496.74,609c12.75,9.86,24.39,14.77,34.78,14.62-1.8,2.56-3.76,5.23-5.91,8a5.55,5.55,0,0,0-1-.08,8.4,8.4,0,0,0-8.15,5.59,8.58,8.58,0,1,0,15.15-1.83q5.31-6.95,9.49-13.36c.48-.17,1-.36,1.45-.55C563,613,570,583.59,571.79,574.06a19.11,19.11,0,0,0,9.91-4.28c6.51-5.33,10.41-14.77,11.59-28.1a3.43,3.43,0,0,0-1.13-2.87C595.82,524.67,604.76,486.47,597.61,475.93ZM536.63,616c-9.85,2.35-21.81-1.84-35.61-12.51a28.59,28.59,0,0,1-11.2-25.35c1.27-11.86,9.84-17.75,26.27-18h.73c4.09,0,24.18.66,30.53,13.32C550.84,580.36,551.05,593.11,536.63,616Z" transform="translate(-386.08 -431.32)"/></svg>